<svg width="40" height="40" viewBox="0 0 40 40" fill="none" xmlns="http://www.w3.org/2000/svg">
<path fill-rule="evenodd" clip-rule="evenodd" d="M4.21193 5.87868C3.33325 6.75736 3.33325 8.17157 3.33325 11V29C3.33325 31.8284 3.33325 33.2426 4.21193 34.1213C5.09061 35 6.50482 35 9.33325 35H30.6666C33.495 35 34.9092 35 35.7879 34.1213C36.6666 33.2426 36.6666 31.8284 36.6666 29V11C36.6666 8.17157 36.6666 6.75736 35.7879 5.87868C34.9092 5 33.495 5 30.6666 5H9.33325C6.50482 5 5.09061 5 4.21193 5.87868ZM26.6666 13C27.7712 13 28.6666 13.8954 28.6666 15V28.3333C28.6666 29.4379 27.7712 30.3333 26.6666 30.3333C25.562 30.3333 24.6666 29.4379 24.6666 28.3333V15C24.6666 13.8954 25.562 13 26.6666 13ZM15.3333 18.3333C15.3333 17.2288 14.4378 16.3333 13.3333 16.3333C12.2287 16.3333 11.3333 17.2288 11.3333 18.3333V28.3333C11.3333 29.4379 12.2287 30.3333 13.3333 30.3333C14.4378 30.3333 15.3333 29.4379 15.3333 28.3333L15.3333 18.3333ZM21.9999 21.6667C21.9999 20.5621 21.1045 19.6667 19.9999 19.6667C18.8953 19.6667 17.9999 20.5621 17.9999 21.6667V28.3333C17.9999 29.4379 18.8953 30.3333 19.9999 30.3333C21.1045 30.3333 21.9999 29.4379 21.9999 28.3333V21.6667Z" fill="#FF5C16"/>
</svg>
